<?xml version="1.0" encoding="UTF-8" standalone="no"?>
<svg
   xmlns:dc="http://purl.org/dc/elements/1.1/"
   xmlns:cc="http://creativecommons.org/ns#"
   xmlns:rdf="http://www.w3.org/1999/02/22-rdf-syntax-ns#"
   xmlns:svg="http://www.w3.org/2000/svg"
   xmlns="http://www.w3.org/2000/svg"
   xmlns:xlink="http://www.w3.org/1999/xlink"
   xmlns:sodipodi="http://sodipodi.sourceforge.net/DTD/sodipodi-0.dtd"
   xmlns:inkscape="http://www.inkscape.org/namespaces/inkscape"
   width="163.83624mm"
   height="26.019741mm"
   viewBox="0 0 163.83624 26.019741"
   version="1.1"
   id="svg2378"
   sodipodi:docname="1_img&amp;text_white_all.svg"
   inkscape:version="1.0.1 (c497b03c, 2020-09-10)">
  <sodipodi:namedview
     pagecolor="#ffffff"
     bordercolor="#666666"
     borderopacity="1"
     objecttolerance="10"
     gridtolerance="10"
     guidetolerance="10"
     inkscape:pageopacity="0"
     inkscape:pageshadow="2"
     inkscape:window-width="1280"
     inkscape:window-height="662"
     id="namedview852"
     showgrid="false"
     inkscape:zoom="1.149827"
     inkscape:cx="309.6118"
     inkscape:cy="49.171164"
     inkscape:window-x="0"
     inkscape:window-y="23"
     inkscape:window-maximized="0"
     inkscape:current-layer="layer1"
     inkscape:document-rotation="0" />
  <defs
     id="defs2372">
    <linearGradient
       xlink:href="#linearGradient3711"
       id="linearGradient3713-1-5-7"
       x1="7529.7134"
       y1="-2320.8616"
       x2="7858.0239"
       y2="-2320.8616"
       gradientUnits="userSpaceOnUse"
       gradientTransform="matrix(0.01188398,0,0,-0.01188398,104.15851,13.731534)" />
    <linearGradient
       id="linearGradient3711">
      <stop
         style="stop-color:#191919;stop-opacity:1;"
         offset="0"
         id="stop3707" />
      <stop
         style="stop-color:#080808;stop-opacity:0.31343284;"
         offset="1"
         id="stop3709" />
    </linearGradient>
  </defs>
  <metadata
     id="metadata2375">
    <rdf:RDF>
      <cc:Work
         rdf:about="">
        <dc:format>image/svg+xml</dc:format>
        <dc:type
           rdf:resource="http://purl.org/dc/dcmitype/StillImage" />
        <dc:title />
      </cc:Work>
    </rdf:RDF>
  </metadata>
  <g
     id="layer1"
     transform="translate(-31.658742,-66.053895)">
    <g
       id="g2347"
       transform="matrix(1.9926807,0,0,1.9926807,-344.96546,0.54416647)">
      <circle
         style="opacity:1;fill:#4dabfc;fill-opacity:1;fill-rule:nonzero;stroke-width:0.108936"
         id="path1053-5-7-5-3-4-8-1-8"
         cx="195.52766"
         cy="39.408749"
         r="6.5238752" />
      <path
         d="m 197.57335,34.982227 c -0.0546,0.02435 0.0378,0.03658 0.28588,0.03658 0.43726,0.0042 0.62646,0.0691 0.72317,0.243948 0.0588,0.113847 0.0378,0.170754 -0.0378,0.09351 -0.0168,-0.01626 -0.0462,-0.02847 -0.0588,-0.02847 -0.0168,-0.0042 -0.12196,-0.02031 -0.23966,-0.03658 -0.37419,-0.06101 -0.99222,-0.03252 -1.29913,0.061 -0.78202,0.231745 -1.74901,0.272403 -1.74901,0.07726 0,-0.02435 0.19759,-0.0407 0.47508,-0.04473 0.70212,-0.0042 0.49612,-0.02847 -0.42043,-0.04879 -0.73576,-0.01626 -0.81144,-0.0122 -0.81144,0.05284 0,0.0691 0.15555,0.227685 0.34056,0.333387 0.40781,0.248008 1.2697,0.333387 2.20307,0.219553 0.76604,0.06696 1.00036,0.181718 1.05083,0.380938 0.0336,0.121979 0.10543,0.180125 -0.18894,0.895699 -0.13037,0.325253 -0.26487,0.691168 -0.2985,0.813133 -0.08,0.309 -0.0672,0.898529 0.0252,1.207522 0.0631,0.215483 0.0884,0.25614 0.16817,0.25614 0.0799,0 0.10095,-0.02847 0.12616,-0.195158 0.0504,-0.341519 0.23125,-0.788749 0.52555,-1.309162 0.31532,-0.552932 0.51293,-1.000162 0.5886,-1.321355 0.0252,-0.113834 0.0672,-0.235807 0.0884,-0.272404 0.0504,-0.09757 -0.004,-0.662705 -0.004,-0.662705 -0.021,-0.0122 -0.042,-0.05697 -0.042,-0.09757 0,-0.07727 -0.0808,-0.281154 -0.13118,-0.281154 -0.0168,0 -0.20096,-0.162005 -0.24721,-0.1986 -0.2018,-0.170756 -0.83667,-0.272398 -1.07212,-0.174826 z"
         id="path835-0-0-2-5-2-9-0"
         style="fill:#f2f2f2;fill-opacity:1;stroke-width:0.00413446" />
      <path
         d="m 193.40509,36.012505 c 0.0503,0.02435 -0.0348,0.03658 -0.26293,0.03658 -0.40213,0.0042 -0.57614,0.0691 -0.66508,0.243939 -0.0542,0.113847 -0.0348,0.170763 0.0348,0.09352 0.0154,-0.01626 0.0425,-0.02847 0.0542,-0.02847 0.0154,-0.0042 0.11207,-0.02031 0.22041,-0.03658 0.34412,-0.061 0.91254,-0.03252 1.19481,0.061 0.7192,0.231735 1.60853,0.272396 1.60853,0.07726 0,-0.02435 -0.18172,-0.0407 -0.43693,-0.04473 -0.64573,-0.0042 -0.45628,-0.02847 0.38667,-0.04878 0.67666,-0.01626 0.74626,-0.0122 0.74626,0.05284 0,0.0691 -0.14306,0.227676 -0.31319,0.333386 -0.37507,0.24801 -1.16774,0.333387 -2.02616,0.219553 -0.49988,0.08852 -0.77666,0.09539 -0.82306,0.294611 -0.031,0.12198 -0.24027,0.266453 0.0304,0.982016 0.11979,0.325256 0.2436,0.691178 0.27453,0.813143 0.0734,0.309 0.0618,0.898522 -0.0232,1.207512 -0.058,0.215493 -0.0813,0.256143 -0.15466,0.256143 -0.0735,0 -0.0928,-0.02847 -0.116,-0.19515 -0.0463,-0.34152 -0.21267,-0.788748 -0.48334,-1.309163 -0.29,-0.55293 -0.47173,-1.00016 -0.54134,-1.321355 -0.0232,-0.113834 -0.0618,-0.235807 -0.0812,-0.272403 -0.0463,-0.09757 -0.0463,-0.630179 0.004,-0.662704 0.0194,-0.0122 0.0386,-0.05697 0.0386,-0.09757 0,-0.07727 0.19333,-0.410642 0.23974,-0.410642 0.0154,0 0.0657,-0.03252 0.10827,-0.0691 0.18562,-0.170763 0.76948,-0.272404 0.98602,-0.174825 z"
         id="path835-70-9-80-9-8-9-24-2"
         style="fill:#f2f2f2;fill-opacity:1;stroke-width:0.00396494" />
      <path
         d="m 194.50978,38.682754 c -0.2004,0.03813 -0.36262,0.09542 -0.35307,0.133593 0,0.04772 0,0.181305 0,0.305359 0,0.200392 0.0573,0.238566 0.47712,0.295818 0.66798,0.09543 0.66798,0.200391 0,0.162227 -0.31489,-0.01907 -0.64889,0.01907 -0.77294,0.08588 l -0.21947,0.114512 0.21947,0.171762 c 0.12399,0.104972 0.27673,0.181306 0.35307,0.181306 0.0668,0 0.15269,0.114513 0.19085,0.257653 0.0954,0.467578 0.124,0.496207 0.43895,0.591634 0.31491,0.08588 0.31491,0.08588 -0.13362,0.09542 -0.83018,0.01907 -0.95424,0.181315 -0.3626,0.486674 0.25765,0.133592 0.3817,0.257644 0.3817,0.391242 0,0.104971 0.0954,0.229021 0.21947,0.276728 0.18132,0.07636 0.16222,0.08589 -0.14313,0.08589 -0.45804,0.0095 -0.53439,0.152674 -0.18131,0.343533 0.22902,0.114498 0.29582,0.219469 0.35307,0.58209 0.0477,0.353076 0.124,0.477122 0.35308,0.610719 0.26718,0.162227 0.3149,0.162227 0.563,0.03813 0.28627,-0.143132 0.30537,-0.181306 0.40079,-0.639341 0.0477,-0.190856 0.1145,-0.257652 0.29582,-0.257652 0.32445,0 0.39125,-0.171762 0.10502,-0.30536 -0.43895,-0.190849 -0.28628,-0.620263 0.23856,-0.706144 0.42942,-0.07636 0.43896,-0.200392 0.0286,-0.429413 -0.1813,-0.09542 -0.26717,-0.219479 -0.2481,-0.333989 0.0763,-0.52484 0.124,-0.610722 0.33398,-0.610722 0.12401,0 0.29582,-0.0573 0.39124,-0.124052 0.16223,-0.124052 0.15269,-0.143141 -0.16221,-0.33399 l -0.34354,-0.190849 0.13362,-0.563012 c 0.0763,-0.30536 0.0954,-0.591633 0.0573,-0.629805 -0.10503,-0.104972 -2.13751,-0.171763 -2.61465,-0.08588 z"
         id="path1008-8-8-58-48"
         style="fill:url(#linearGradient3713-1-5-7);fill-opacity:1;stroke-width:0.00954256" />
    </g>
    <text
       xml:space="preserve"
       style="font-style:normal;font-variant:normal;font-weight:500;font-stretch:normal;font-size:15.20420000000000016px;line-height:1.25;font-family:Mitr;-inkscape-font-specification:'Mitr Medium';fill:#ffffff;fill-opacity:1;stroke:none;stroke-width:0.380108;"
       x="77.846886"
       y="71.607155"
       id="text1033-7-6-0-1-8-2-3"
       transform="scale(0.86862439,1.1512456)"><tspan
         id="tspan1031-5-5-5-4-2-9-9"
         x="77.846886"
         y="71.607155"
         style="font-style:normal;font-variant:normal;font-weight:500;font-stretch:normal;font-family:Mitr;-inkscape-font-specification:'Mitr Medium';fill:#ffffff;fill-opacity:1;stroke-width:0.380108;"><tspan
           style="font-style:normal;font-variant:normal;font-weight:500;font-stretch:normal;font-family:Mitr;-inkscape-font-specification:'Mitr Medium';fill:#ffffff;fill-opacity:1;stroke-width:0.380108;"
           id="tspan1130-0-7-0">EVOLUCIÓN DENTAL</tspan></tspan></text>
    <text
       xml:space="preserve"
       style="font-style:normal;font-variant:normal;font-weight:300;font-stretch:normal;font-size:7.17293999999999965px;line-height:1.25;font-family:Mitr;-inkscape-font-specification:'Mitr Light';letter-spacing:0.88874200000000003px;fill:#ffffff;fill-opacity:1;stroke:none;stroke-width:0.179324;"
       x="60.866779"
       y="88.922173"
       id="text1037-3-7-2-7-7-5-5"
       transform="scale(0.98171999,1.0186204)"><tspan
         id="tspan1035-9-3-2-1-4-6-2"
         x="60.866779"
         y="88.922173"
         style="font-style:normal;font-variant:normal;font-weight:300;font-stretch:normal;font-family:Mitr;-inkscape-font-specification:'Mitr Light';fill:#ffffff;fill-opacity:1;stroke-width:0.179324;"
         dx="8.2173386 0 0 0 0 0 0 0 0 0 0 0 0 0 0 0 0 0 0 0 0 0">Especialistas en Implantología</tspan></text>
    <path
       style="fill:#00d247;stroke:#ffffff;stroke-width:0.232;stroke-linecap:butt;stroke-linejoin:miter;stroke-opacity:1;fill-opacity:1;stroke-miterlimit:4;stroke-dasharray:none"
       d="m 62.971599,66.073636 v 26"
       id="path1049-5-4-7-3-3-5-9-0" />
  </g>
</svg>
